<?xml version="1.0" standalone="no"?>
<!DOCTYPE svg PUBLIC "-//W3C//DTD SVG 20010904//EN"
 "http://www.w3.org/TR/2001/REC-SVG-20010904/DTD/svg10.dtd">
<svg version="1.0" xmlns="http://www.w3.org/2000/svg"
 width="356.000000pt" height="327.000000pt" viewBox="0 0 356.000000 327.000000"
 preserveAspectRatio="xMidYMid meet">

<g transform="translate(0.000000,327.000000) scale(0.100000,-0.100000)"
fill="#000000" stroke="none">
<path d="M1510 3254 c-42 -14 -90 -35 -263 -113 -103 -46 -204 -129 -278 -228
-49 -66 -123 -209 -152 -295 -13 -39 -36 -82 -57 -105 -65 -71 -71 -111 -46
-318 14 -122 31 -165 76 -192 23 -13 33 -30 45 -73 9 -30 20 -65 25 -78 6 -13
10 -34 10 -47 0 -14 5 -25 11 -25 7 0 9 23 5 73 -8 97 7 223 30 248 22 25 143
83 214 102 71 20 229 49 440 80 114 16 617 11 715 -8 94 -18 177 -50 204 -79
15 -16 25 -44 31 -87 5 -35 14 -91 18 -124 l9 -60 2 53 c0 28 5 52 10 52 5 0
3 13 -5 30 -15 29 -11 70 6 70 5 0 22 14 39 31 l31 31 0 157 c0 194 -10 229
-83 297 -30 29 -69 81 -95 129 -85 155 -159 237 -296 330 -72 49 -105 63 -247
107 -190 59 -315 72 -399 42z"/>
<path d="M2284 2186 c-4 -10 -19 -17 -43 -17 -32 -2 -30 -3 14 -9 28 -4 63
-10 79 -15 39 -11 31 13 -12 38 -29 17 -33 17 -38 3z"/>
<path d="M2038 2145 c-3 -3 -18 -8 -34 -11 -16 -3 -33 -9 -37 -13 -18 -18 23
-16 103 5 l85 23 -56 0 c-31 1 -58 -1 -61 -4z"/>
<path d="M1108 2090 c-31 -28 -32 -29 -10 -30 12 0 30 4 40 9 9 5 25 12 35 15
9 3 17 11 17 18 0 9 -3 9 -10 -2 -8 -13 -11 -13 -22 -1 -11 11 -11 13 1 6 9
-5 12 -4 7 3 -11 18 -23 15 -58 -18z"/>
<path d="M1335 2100 c-47 -5 -44 -6 51 -18 99 -13 134 -10 134 11 0 6 -3 8 -6
5 -3 -4 -19 -2 -35 2 -22 7 -28 6 -22 -3 5 -9 3 -9 -8 -1 -15 12 -32 13 -114
4z"/>
<path d="M1213 2093 c9 -2 23 -2 30 0 6 3 -1 5 -18 5 -16 0 -22 -2 -12 -5z"/>
<path d="M2130 2021 c-83 -17 -162 -81 -189 -154 -18 -48 -11 -54 10 -10 20
40 105 130 115 120 3 -2 0 -16 -6 -31 -16 -44 -12 -91 13 -127 27 -41 93 -77
110 -60 8 8 6 11 -10 11 -11 0 -31 9 -44 21 -21 18 -21 20 -4 13 52 -19 72
-16 106 14 30 27 33 35 31 78 -2 43 0 46 13 28 8 -10 15 -37 15 -59 1 -37 2
-38 11 -15 10 24 8 50 -7 100 l-7 25 22 -20 c13 -11 32 -37 43 -58 23 -47 31
-44 17 6 -12 46 -76 101 -134 116 -48 12 -53 12 -105 2z m10 -60 c12 -23 3
-51 -15 -51 -41 0 -50 22 -22 58 13 17 25 15 37 -7z"/>
<path d="M2655 1986 c-31 -32 -62 -93 -70 -141 -5 -36 -4 -34 14 15 13 37 33
67 60 91 40 36 52 59 31 59 -6 0 -22 -11 -35 -24z"/>
<path d="M1264 1954 c-79 -29 -155 -114 -154 -171 1 -10 11 2 25 27 29 56 68
94 118 115 20 8 37 13 37 10 0 -2 -9 -21 -19 -42 -16 -31 -18 -47 -11 -83 11
-58 64 -110 112 -110 l33 1 -35 15 c-19 8 -43 25 -52 37 -26 33 -22 40 7 12
33 -34 84 -33 124 1 25 21 31 33 31 67 1 40 1 41 16 22 10 -13 14 -33 11 -60
l-5 -40 13 30 c8 17 11 40 8 53 -9 36 6 25 28 -20 l20 -43 -5 35 c-9 49 -54
110 -101 134 -50 26 -145 31 -201 10z m92 -60 c8 -31 -7 -48 -35 -39 -20 6
-29 43 -14 58 16 16 43 6 49 -19z"/>
<path d="M680 1860 c0 -6 23 -24 50 -41 75 -46 112 -117 151 -285 25 -107 28
-138 19 -149 -18 -22 -60 -18 -89 8 l-26 22 25 -29 c22 -25 30 -27 71 -23 l46
6 27 -58 c14 -31 26 -65 26 -74 0 -9 4 -17 9 -17 5 0 11 -12 14 -27 7 -37 75
-140 121 -187 21 -20 61 -50 89 -66 29 -17 63 -39 77 -50 23 -19 24 -21 8 -31
-20 -11 -23 -41 -8 -70 14 -25 -6 -26 -34 -1 -11 9 -2 -5 20 -31 61 -75 143
-120 256 -142 9 -2 25 -8 35 -13 38 -20 70 -18 91 7 19 24 23 25 173 27 l154
1 140 48 c160 54 182 64 248 113 l47 36 -77 33 c-43 18 -86 32 -95 33 -34 0
-17 26 56 82 41 32 87 75 103 95 15 21 30 40 33 43 20 18 78 180 86 240 15
108 18 115 54 121 21 4 26 7 13 8 -33 2 -41 28 -32 116 11 111 10 206 -1 180
-5 -11 -9 -48 -9 -83 -1 -106 -32 -334 -53 -397 -27 -83 -59 -133 -134 -214
-82 -89 -135 -127 -259 -189 -122 -61 -146 -68 -260 -82 -107 -13 -182 -6
-290 27 -298 92 -455 209 -529 393 -34 85 -89 260 -123 393 -3 12 -6 43 -6 69
-1 25 -4 45 -8 42 -4 -2 -6 -12 -4 -22 3 -18 -12 -42 -26 -42 -4 0 -20 27 -35
61 -17 37 -43 74 -67 95 -39 33 -77 45 -77 24z"/>
<path d="M1904 1432 c-14 -37 -68 -62 -134 -62 -46 0 -56 4 -86 34 -32 32 -34
32 -34 12 0 -26 30 -62 60 -71 20 -6 20 -8 4 -20 -42 -30 132 -26 185 5 14 8
14 10 1 11 -8 1 -21 0 -29 -1 -8 -1 -1 14 17 35 18 19 32 47 32 60 0 32 -3 31
-16 -3z"/>
<path d="M2224 1372 c3 -5 -17 -8 -43 -8 -36 0 -70 -11 -142 -46 -52 -25 -116
-51 -143 -57 -69 -17 -215 -15 -314 4 -96 18 -202 15 -216 -8 -20 -32 0 -46
66 -45 35 0 95 -8 133 -17 39 -9 115 -19 171 -22 91 -5 109 -3 180 21 44 14
111 44 148 66 38 22 90 45 115 52 25 6 52 16 60 24 15 13 9 44 -9 44 -6 0 -9
-4 -6 -8z"/>
<path d="M1180 846 c0 -3 9 -10 20 -16 11 -6 20 -8 20 -6 0 3 -9 10 -20 16
-11 6 -20 8 -20 6z"/>
<path d="M754 565 l68 -67 -7 -57 c-7 -57 -61 -367 -72 -408 -4 -17 -1 -23 11
-23 8 0 18 10 20 23 22 116 29 137 41 137 8 0 17 -5 20 -11 4 -5 17 -14 28
-19 12 -5 45 -23 72 -40 28 -17 58 -33 67 -36 10 -4 15 -10 12 -15 -3 -5 0 -9
5 -9 6 0 10 -6 9 -12 -4 -16 197 -30 224 -17 10 6 19 5 23 -1 6 -10 345 -15
345 -5 0 3 -9 18 -20 33 -19 27 -73 155 -85 202 l-6 25 92 0 91 0 23 -33 c20
-30 31 -40 82 -82 10 -8 35 -20 56 -27 41 -12 166 -10 176 4 3 4 22 16 43 27
37 19 89 69 147 144 l34 43 -101 -3 c-88 -3 -103 -1 -123 17 -18 15 -20 16
-10 2 8 -9 11 -20 8 -24 -4 -3 -66 -1 -138 5 -102 8 -138 15 -167 32 -36 21
-36 21 -19 2 21 -23 95 -42 162 -42 45 0 61 -14 28 -24 -33 -9 -185 -27 -217
-25 -17 1 -44 -2 -60 -6 -110 -30 -683 172 -851 300 -82 62 -83 61 -11 -10z"/>
<path d="M2970 589 c-25 -16 -65 -41 -90 -53 -75 -39 -311 -123 -383 -136 -38
-7 -70 -18 -71 -24 -4 -16 -41 -122 -64 -181 -10 -27 -40 -80 -65 -116 -26
-37 -47 -69 -47 -73 0 -7 369 -6 417 1 29 5 32 8 28 31 -6 36 14 282 26 311 9
21 14 23 52 17 23 -4 58 -11 78 -16 35 -10 37 -12 44 -65 4 -38 2 -70 -8 -103
-9 -26 -18 -76 -22 -110 -6 -58 -5 -63 12 -60 13 2 20 17 27 56 5 28 12 52 16
52 4 0 11 -24 16 -53 8 -44 13 -53 33 -55 21 -3 23 -1 18 25 -11 47 -74 395
-81 439 -6 40 -5 42 54 89 53 43 66 55 58 55 -2 0 -23 -14 -48 -31z"/>
<path d="M390 488 c-144 -85 -220 -148 -245 -202 -41 -92 -87 -185 -105 -211
-35 -54 -41 -65 -33 -65 40 -2 226 -1 227 2 7 9 39 96 42 116 4 18 0 22 -19
22 -13 0 -29 6 -36 12 -11 11 -12 10 -6 -2 8 -13 7 -13 -8 -1 -9 7 -17 10 -17
5 -1 -21 -20 24 -20 46 0 34 53 108 105 148 33 25 52 33 76 30 30 -3 33 0 60
60 15 34 25 62 21 61 -4 0 -23 -10 -42 -21z"/>
<path d="M2360 370 c-11 -8 -7 -9 15 -4 37 8 45 14 19 14 -10 0 -26 -5 -34
-10z"/>
<path d="M2318 353 c7 -3 16 -2 19 1 4 3 -2 6 -13 5 -11 0 -14 -3 -6 -6z"/>
<path d="M3371 334 c2 -6 33 -84 69 -173 62 -153 66 -161 92 -161 25 0 28 4
28 31 0 36 -50 131 -95 179 -18 19 -47 58 -65 85 -18 28 -31 45 -29 39z"/>
</g>
</svg>
